<?xml version="1.0" standalone="no"?>
<!DOCTYPE svg PUBLIC "-//W3C//DTD SVG 20010904//EN"
 "http://www.w3.org/TR/2001/REC-SVG-20010904/DTD/svg10.dtd">
<svg version="1.0" xmlns="http://www.w3.org/2000/svg"
 width="238.000000pt" height="212.000000pt" viewBox="0 0 238.000000 212.000000"
 preserveAspectRatio="xMidYMid meet">

<g transform="translate(0.000000,212.000000) scale(0.100000,-0.100000)"
fill="#000000" stroke="none">
<path d="M64 2110 c-12 -4 -31 -21 -44 -37 -19 -24 -21 -37 -18 -97 3 -60 7
-71 31 -92 27 -23 34 -24 187 -24 105 0 161 -4 166 -11 3 -6 71 -327 150 -712
l143 -702 -35 -28 c-66 -55 -94 -142 -74 -229 19 -76 95 -151 170 -167 199
-43 346 152 251 333 l-30 56 431 0 c410 0 430 -1 416 -17 -34 -39 -51 -89 -52
-148 0 -69 19 -115 67 -165 43 -45 91 -63 162 -63 173 -1 278 173 199 332 -16
32 -41 62 -64 77 l-37 25 14 61 c16 71 12 100 -22 134 l-24 24 -575 0 -574 0
-14 63 c-8 34 -13 65 -11 70 2 4 284 7 627 7 l622 0 26 28 c23 24 39 83 127
476 66 289 100 459 96 476 -3 16 -15 36 -27 46 -19 18 -60 19 -856 24 l-836 5
-18 90 c-36 180 -27 175 -330 174 -123 0 -233 -4 -244 -9z"/>
</g>
</svg>
